<svg width="513" height="558" viewBox="0 0 513 558" fill="none" xmlns="http://www.w3.org/2000/svg">
<circle cx="256.5" cy="256.5" r="255" fill="#1E1514" stroke="black" stroke-width="3"/>
<g filter="url(#filter0_d_12_12)">
<path d="M259.078 51C398.411 89.5 409.578 190.5 259.078 230" stroke="white" stroke-width="8" stroke-linecap="round"/>
</g>
<g filter="url(#filter1_d_12_12)">
<path d="M253.871 235.856L257.727 234.79L255.596 227.079L251.74 228.144L253.871 235.856ZM255.562 415.369C257.699 415.93 259.886 414.652 260.447 412.515C261.008 410.379 259.73 408.192 257.593 407.631L255.562 415.369ZM251.74 228.144C216.522 237.876 189.343 251.665 170.83 267.712C152.311 283.764 142.25 302.295 142.005 321.323C141.759 340.384 151.373 359.027 170.3 375.241C189.199 391.431 217.571 405.398 255.562 415.369L257.593 407.631C220.334 397.852 193.194 384.319 175.505 369.165C157.844 354.036 149.797 337.491 150.004 321.427C150.211 305.33 158.717 288.798 176.07 273.757C193.428 258.71 219.423 245.374 253.871 235.856L251.74 228.144Z" fill="white"/>
</g>
<path d="M257.078 408.5V51" stroke="white" stroke-width="3"/>
<path d="M152.4 466.616C149.973 466.616 147.733 466.019 145.68 464.824C143.664 463.629 142.059 462.024 140.864 460.008C139.669 457.992 139.072 455.789 139.072 453.4C139.072 451.011 139.669 448.808 140.864 446.792C142.059 444.776 143.664 443.171 145.68 441.976C147.733 440.781 149.973 440.184 152.4 440.184C154.752 440.184 156.992 440.819 159.12 442.088C161.248 443.32 162.816 444.944 163.824 446.96V424H165.616V466H163.824V459.896C162.704 461.912 161.08 463.536 158.952 464.768C156.861 466 154.677 466.616 152.4 466.616ZM152.344 465.048C154.397 465.048 156.301 464.525 158.056 463.48C159.848 462.397 161.267 460.979 162.312 459.224C163.395 457.432 163.936 455.509 163.936 453.456C163.936 451.403 163.395 449.48 162.312 447.688C161.267 445.896 159.848 444.459 158.056 443.376C156.301 442.293 154.397 441.752 152.344 441.752C150.291 441.752 148.387 442.293 146.632 443.376C144.877 444.421 143.477 445.84 142.432 447.632C141.387 449.424 140.864 451.347 140.864 453.4C140.864 455.491 141.368 457.432 142.376 459.224C143.421 460.979 144.821 462.397 146.576 463.48C148.368 464.525 150.291 465.048 152.344 465.048ZM172.684 440.8H174.476V446.624C175.223 444.795 176.306 443.357 177.724 442.312C179.18 441.267 180.823 440.744 182.652 440.744C183.81 440.744 184.986 440.987 186.18 441.472V443.544C185.098 442.723 183.884 442.312 182.54 442.312C181.196 442.312 179.89 442.723 178.62 443.544C177.388 444.365 176.38 445.467 175.596 446.848C174.85 448.229 174.476 449.704 174.476 451.272V466H172.684V440.8ZM201.19 465.104C203.132 465.104 204.98 464.6 206.734 463.592C208.489 462.584 209.945 461.203 211.102 459.448V462.304C209.721 463.835 208.209 464.955 206.566 465.664C204.924 466.336 203.057 466.672 200.966 466.672C198.652 466.672 196.468 466.056 194.414 464.824C192.398 463.592 190.774 461.949 189.542 459.896C188.348 457.843 187.75 455.659 187.75 453.344C187.75 450.843 188.348 448.603 189.542 446.624C190.737 444.608 192.361 443.04 194.414 441.92C196.505 440.8 198.82 440.24 201.358 440.24C205.241 440.24 208.545 441.771 211.27 444.832L193.686 462.192C194.918 463.2 196.113 463.947 197.27 464.432C198.428 464.88 199.734 465.104 201.19 465.104ZM189.542 453.176C189.542 456.275 190.569 458.925 192.622 461.128L209.03 444.832C207.798 443.749 206.604 442.984 205.446 442.536C204.289 442.051 202.908 441.808 201.302 441.808C199.025 441.808 196.99 442.312 195.198 443.32C193.444 444.291 192.062 445.635 191.054 447.352C190.046 449.069 189.542 451.011 189.542 453.176ZM222.976 466.616C221.184 466.616 219.597 466.317 218.216 465.72C216.834 465.085 215.845 464.283 215.248 463.312V460.344C215.957 461.949 216.928 463.144 218.16 463.928C219.392 464.675 220.96 465.048 222.864 465.048C224.693 465.048 226.168 464.488 227.288 463.368C228.408 462.211 228.968 460.736 228.968 458.944C228.968 457.413 228.65 456.237 228.016 455.416C227.381 454.557 226.354 453.699 224.936 452.84L222.808 451.608C221.277 450.675 220.12 449.947 219.336 449.424C218.589 448.864 217.992 448.248 217.544 447.576C217.096 446.867 216.872 446.045 216.872 445.112C216.872 443.619 217.394 442.424 218.44 441.528C219.485 440.632 220.848 440.184 222.528 440.184C224.581 440.184 226.298 440.651 227.68 441.584V444.048C226.522 442.517 224.861 441.752 222.696 441.752C221.501 441.752 220.53 442.051 219.784 442.648C219.037 443.245 218.664 444.011 218.664 444.944C218.664 445.765 218.888 446.493 219.336 447.128C219.784 447.725 220.4 448.285 221.184 448.808C222.005 449.331 223.349 450.115 225.216 451.16C227.12 452.243 228.52 453.363 229.416 454.52C230.312 455.64 230.76 457.115 230.76 458.944C230.76 461.259 229.994 463.125 228.464 464.544C226.97 465.925 225.141 466.616 222.976 466.616ZM242.445 466.616C240.653 466.616 239.066 466.317 237.685 465.72C236.303 465.085 235.314 464.283 234.717 463.312V460.344C235.426 461.949 236.397 463.144 237.629 463.928C238.861 464.675 240.429 465.048 242.333 465.048C244.162 465.048 245.637 464.488 246.757 463.368C247.877 462.211 248.437 460.736 248.437 458.944C248.437 457.413 248.119 456.237 247.485 455.416C246.85 454.557 245.823 453.699 244.405 452.84L242.277 451.608C240.746 450.675 239.589 449.947 238.805 449.424C238.058 448.864 237.461 448.248 237.013 447.576C236.565 446.867 236.341 446.045 236.341 445.112C236.341 443.619 236.863 442.424 237.909 441.528C238.954 440.632 240.317 440.184 241.997 440.184C244.05 440.184 245.767 440.651 247.149 441.584V444.048C245.991 442.517 244.33 441.752 242.165 441.752C240.97 441.752 239.999 442.051 239.253 442.648C238.506 443.245 238.133 444.011 238.133 444.944C238.133 445.765 238.357 446.493 238.805 447.128C239.253 447.725 239.869 448.285 240.653 448.808C241.474 449.331 242.818 450.115 244.685 451.16C246.589 452.243 247.989 453.363 248.885 454.52C249.781 455.64 250.229 457.115 250.229 458.944C250.229 461.259 249.463 463.125 247.933 464.544C246.439 465.925 244.61 466.616 242.445 466.616ZM267.681 466.728C265.255 466.728 263.015 466.149 260.961 464.992C258.945 463.835 257.34 462.248 256.145 460.232C254.951 458.216 254.353 455.939 254.353 453.4C254.353 451.048 254.951 448.883 256.145 446.904C257.34 444.888 258.964 443.283 261.017 442.088C263.108 440.893 265.404 440.296 267.905 440.296C269.996 440.296 271.788 440.632 273.281 441.304C274.775 441.976 276.231 443.021 277.649 444.44V447.464C276.417 445.635 275.036 444.253 273.505 443.32C272.012 442.349 270.145 441.864 267.905 441.864C265.852 441.864 263.911 442.405 262.081 443.488C260.289 444.533 258.852 445.952 257.769 447.744C256.687 449.536 256.145 451.459 256.145 453.512C256.145 455.752 256.668 457.768 257.713 459.56C258.759 461.315 260.159 462.696 261.913 463.704C263.705 464.675 265.628 465.16 267.681 465.16C271.863 465.16 275.185 463.275 277.649 459.504V462.528C276.305 463.947 274.812 465.011 273.169 465.72C271.564 466.392 269.735 466.728 267.681 466.728ZM295.137 466.896C292.598 466.896 290.302 466.28 288.249 465.048C286.196 463.779 284.59 462.117 283.433 460.064C282.276 457.973 281.697 455.715 281.697 453.288C281.697 450.899 282.276 448.677 283.433 446.624C284.628 444.571 286.233 442.947 288.249 441.752C290.302 440.52 292.58 439.904 295.081 439.904C297.545 439.904 299.785 440.52 301.801 441.752C303.854 442.947 305.46 444.571 306.617 446.624C307.774 448.677 308.353 450.899 308.353 453.288C308.353 455.789 307.793 458.085 306.673 460.176C305.553 462.229 303.985 463.872 301.969 465.104C299.99 466.299 297.713 466.896 295.137 466.896ZM295.137 465.328C297.265 465.328 299.206 464.787 300.961 463.704C302.716 462.621 304.078 461.184 305.049 459.392C306.057 457.563 306.561 455.565 306.561 453.4C306.561 451.272 306.057 449.293 305.049 447.464C304.041 445.635 302.66 444.179 300.905 443.096C299.15 442.013 297.209 441.472 295.081 441.472C292.953 441.472 290.993 442.032 289.201 443.152C287.446 444.235 286.046 445.691 285.001 447.52C283.993 449.349 283.489 451.328 283.489 453.456C283.489 455.584 283.993 457.563 285.001 459.392C286.046 461.184 287.446 462.621 289.201 463.704C290.993 464.787 292.972 465.328 295.137 465.328ZM325.814 466.616C323.387 466.616 321.147 466.019 319.094 464.824C317.078 463.629 315.473 462.024 314.278 460.008C313.083 457.992 312.486 455.789 312.486 453.4C312.486 451.011 313.083 448.808 314.278 446.792C315.473 444.776 317.078 443.171 319.094 441.976C321.147 440.781 323.387 440.184 325.814 440.184C328.166 440.184 330.406 440.819 332.534 442.088C334.662 443.32 336.23 444.944 337.238 446.96V424H339.03V466H337.238V459.896C336.118 461.912 334.494 463.536 332.366 464.768C330.275 466 328.091 466.616 325.814 466.616ZM325.758 465.048C327.811 465.048 329.715 464.525 331.47 463.48C333.262 462.397 334.681 460.979 335.726 459.224C336.809 457.432 337.35 455.509 337.35 453.456C337.35 451.403 336.809 449.48 335.726 447.688C334.681 445.896 333.262 444.459 331.47 443.376C329.715 442.293 327.811 441.752 325.758 441.752C323.705 441.752 321.801 442.293 320.046 443.376C318.291 444.421 316.891 445.84 315.846 447.632C314.801 449.424 314.278 451.347 314.278 453.4C314.278 455.491 314.782 457.432 315.79 459.224C316.835 460.979 318.235 462.397 319.99 463.48C321.782 464.525 323.705 465.048 325.758 465.048ZM358.362 465.104C360.304 465.104 362.152 464.6 363.906 463.592C365.661 462.584 367.117 461.203 368.274 459.448V462.304C366.893 463.835 365.381 464.955 363.738 465.664C362.096 466.336 360.229 466.672 358.138 466.672C355.824 466.672 353.64 466.056 351.586 464.824C349.57 463.592 347.946 461.949 346.714 459.896C345.52 457.843 344.922 455.659 344.922 453.344C344.922 450.843 345.52 448.603 346.714 446.624C347.909 444.608 349.533 443.04 351.586 441.92C353.677 440.8 355.992 440.24 358.53 440.24C362.413 440.24 365.717 441.771 368.442 444.832L350.858 462.192C352.09 463.2 353.285 463.947 354.442 464.432C355.6 464.88 356.906 465.104 358.362 465.104ZM346.714 453.176C346.714 456.275 347.741 458.925 349.794 461.128L366.202 444.832C364.97 443.749 363.776 442.984 362.618 442.536C361.461 442.051 360.08 441.808 358.474 441.808C356.197 441.808 354.162 442.312 352.37 443.32C350.616 444.291 349.234 445.635 348.226 447.352C347.218 449.069 346.714 451.011 346.714 453.176Z" fill="#FFFEFE"/>
<path d="M145.68 464.824L145.553 465.039L145.554 465.04L145.68 464.824ZM140.864 460.008L141.079 459.881L141.079 459.881L140.864 460.008ZM140.864 446.792L140.649 446.665L140.649 446.665L140.864 446.792ZM145.68 441.976L145.554 441.76L145.553 441.761L145.68 441.976ZM159.12 442.088L158.992 442.303L158.995 442.304L159.12 442.088ZM163.824 446.96L163.6 447.072L164.074 446.96H163.824ZM163.824 424V423.75H163.574V424H163.824ZM165.616 424H165.866V423.75H165.616V424ZM165.616 466V466.25H165.866V466H165.616ZM163.824 466H163.574V466.25H163.824V466ZM163.824 459.896H164.074V458.931L163.605 459.775L163.824 459.896ZM158.952 464.768L158.827 464.552L158.825 464.553L158.952 464.768ZM158.056 463.48L158.184 463.695L158.185 463.694L158.056 463.48ZM162.312 459.224L162.098 459.095L162.097 459.096L162.312 459.224ZM162.312 447.688L162.096 447.814L162.098 447.817L162.312 447.688ZM158.056 443.376L157.925 443.589L157.927 443.59L158.056 443.376ZM146.632 443.376L146.76 443.591L146.763 443.589L146.632 443.376ZM142.376 459.224L142.158 459.347L142.161 459.352L142.376 459.224ZM146.576 463.48L146.445 463.693L146.45 463.696L146.576 463.48ZM152.4 466.366C150.017 466.366 147.82 465.78 145.806 464.608L145.554 465.04C147.647 466.257 149.93 466.866 152.4 466.866V466.366ZM145.807 464.609C143.828 463.436 142.252 461.86 141.079 459.881L140.649 460.135C141.865 462.188 143.5 463.823 145.553 465.039L145.807 464.609ZM141.079 459.881C139.908 457.904 139.322 455.745 139.322 453.4H138.822C138.822 455.833 139.431 458.08 140.649 460.135L141.079 459.881ZM139.322 453.4C139.322 451.055 139.908 448.896 141.079 446.919L140.649 446.665C139.431 448.72 138.822 450.967 138.822 453.4H139.322ZM141.079 446.919C142.252 444.94 143.828 443.364 145.807 442.191L145.553 441.761C143.5 442.977 141.865 444.612 140.649 446.665L141.079 446.919ZM145.806 442.192C147.82 441.02 150.017 440.434 152.4 440.434V439.934C149.93 439.934 147.647 440.543 145.554 441.76L145.806 442.192ZM152.4 440.434C154.704 440.434 156.9 441.055 158.992 442.303L159.248 441.873C157.084 440.582 154.8 439.934 152.4 439.934V440.434ZM158.995 442.304C161.084 443.514 162.616 445.103 163.6 447.072L164.048 446.848C163.016 444.785 161.412 443.126 159.245 441.872L158.995 442.304ZM164.074 446.96V424H163.574V446.96H164.074ZM163.824 424.25H165.616V423.75H163.824V424.25ZM165.366 424V466H165.866V424H165.366ZM165.616 465.75H163.824V466.25H165.616V465.75ZM164.074 466V459.896H163.574V466H164.074ZM163.605 459.775C162.509 461.748 160.918 463.341 158.827 464.552L159.077 464.984C161.242 463.731 162.899 462.076 164.043 460.017L163.605 459.775ZM158.825 464.553C156.77 465.763 154.63 466.366 152.4 466.366V466.866C154.725 466.866 156.952 466.237 159.079 464.983L158.825 464.553ZM152.344 465.298C154.442 465.298 156.39 464.763 158.184 463.695L157.928 463.265C156.212 464.287 154.353 464.798 152.344 464.798V465.298ZM158.185 463.694C160.011 462.591 161.46 461.143 162.527 459.352L162.097 459.096C161.073 460.815 159.685 462.204 157.927 463.266L158.185 463.694ZM162.526 459.353C163.632 457.523 164.186 455.556 164.186 453.456H163.686C163.686 455.463 163.158 457.341 162.098 459.095L162.526 459.353ZM164.186 453.456C164.186 451.356 163.632 449.389 162.526 447.559L162.098 447.817C163.158 449.571 163.686 451.449 163.686 453.456H164.186ZM162.528 447.562C161.461 445.734 160.013 444.266 158.185 443.162L157.927 443.59C159.683 444.651 161.072 446.058 162.096 447.814L162.528 447.562ZM158.187 443.163C156.393 442.056 154.444 441.502 152.344 441.502V442.002C154.351 442.002 156.209 442.53 157.925 443.589L158.187 443.163ZM152.344 441.502C150.244 441.502 148.295 442.056 146.501 443.163L146.763 443.589C148.479 442.53 150.337 442.002 152.344 442.002V441.502ZM146.504 443.161C144.712 444.229 143.282 445.678 142.216 447.506L142.648 447.758C143.672 446.002 145.042 444.614 146.76 443.591L146.504 443.161ZM142.216 447.506C141.149 449.336 140.614 451.302 140.614 453.4H141.114C141.114 451.391 141.625 449.512 142.648 447.758L142.216 447.506ZM140.614 453.4C140.614 455.533 141.129 457.516 142.158 459.347L142.594 459.101C141.607 457.348 141.114 455.448 141.114 453.4H140.614ZM142.161 459.352C143.227 461.142 144.656 462.589 146.445 463.693L146.707 463.267C144.987 462.206 143.615 460.816 142.591 459.096L142.161 459.352ZM146.45 463.696C148.28 464.763 150.246 465.298 152.344 465.298V464.798C150.335 464.798 148.456 464.287 146.702 463.264L146.45 463.696ZM172.684 440.8V440.55H172.434V440.8H172.684ZM174.476 440.8H174.726V440.55H174.476V440.8ZM174.476 446.624H174.226L174.708 446.718L174.476 446.624ZM177.724 442.312L177.578 442.109L177.576 442.111L177.724 442.312ZM186.18 441.472H186.43V441.304L186.274 441.24L186.18 441.472ZM186.18 443.544L186.029 443.743L186.43 444.047V443.544H186.18ZM178.62 443.544L178.484 443.334L178.482 443.336L178.62 443.544ZM175.596 446.848L175.379 446.725L175.376 446.729L175.596 446.848ZM174.476 466V466.25H174.726V466H174.476ZM172.684 466H172.434V466.25H172.684V466ZM172.684 441.05H174.476V440.55H172.684V441.05ZM174.226 440.8V446.624H174.726V440.8H174.226ZM174.708 446.718C175.439 444.926 176.495 443.528 177.873 442.513L177.576 442.111C176.116 443.187 175.007 444.663 174.245 446.53L174.708 446.718ZM177.87 442.515C179.283 441.501 180.874 440.994 182.652 440.994V440.494C180.772 440.494 179.078 441.032 177.578 442.109L177.87 442.515ZM182.652 440.994C183.774 440.994 184.918 441.229 186.086 441.704L186.274 441.24C185.053 440.744 183.845 440.494 182.652 440.494V440.994ZM185.93 441.472V443.544H186.43V441.472H185.93ZM186.331 443.345C185.206 442.491 183.939 442.062 182.54 442.062V442.562C183.829 442.562 184.989 442.954 186.029 443.743L186.331 443.345ZM182.54 442.062C181.142 442.062 179.789 442.49 178.484 443.334L178.756 443.754C179.99 442.955 181.25 442.562 182.54 442.562V442.062ZM178.482 443.336C177.215 444.181 176.181 445.312 175.379 446.725L175.814 446.971C176.58 445.622 177.562 444.55 178.759 443.752L178.482 443.336ZM175.376 446.729C174.61 448.147 174.226 449.662 174.226 451.272H174.726C174.726 449.746 175.089 448.312 175.816 446.967L175.376 446.729ZM174.226 451.272V466H174.726V451.272H174.226ZM174.476 465.75H172.684V466.25H174.476V465.75ZM172.934 466V440.8H172.434V466H172.934ZM206.734 463.592L206.61 463.375L206.61 463.375L206.734 463.592ZM211.102 459.448H211.352V458.615L210.894 459.31L211.102 459.448ZM211.102 462.304L211.288 462.471L211.352 462.4V462.304H211.102ZM206.566 465.664L206.661 465.895L206.666 465.894L206.566 465.664ZM194.414 464.824L194.284 465.037L194.286 465.038L194.414 464.824ZM189.542 459.896L189.326 460.022L189.328 460.025L189.542 459.896ZM189.542 446.624L189.756 446.753L189.758 446.751L189.542 446.624ZM194.414 441.92L194.296 441.7L194.295 441.701L194.414 441.92ZM211.27 444.832L211.446 445.01L211.615 444.843L211.457 444.666L211.27 444.832ZM193.686 462.192L193.511 462.014L193.313 462.209L193.528 462.385L193.686 462.192ZM197.27 464.432L197.174 464.663L197.18 464.665L197.27 464.432ZM192.622 461.128L192.44 461.298L192.616 461.487L192.799 461.305L192.622 461.128ZM209.03 444.832L209.207 445.009L209.396 444.821L209.195 444.644L209.03 444.832ZM205.446 442.536L205.35 442.767L205.356 442.769L205.446 442.536ZM195.198 443.32L195.319 443.539L195.321 443.538L195.198 443.32ZM201.19 465.354C203.177 465.354 205.068 464.838 206.859 463.809L206.61 463.375C204.891 464.362 203.086 464.854 201.19 464.854V465.354ZM206.859 463.809C208.649 462.781 210.133 461.372 211.311 459.586L210.894 459.31C209.757 461.034 208.329 462.387 206.61 463.375L206.859 463.809ZM210.852 459.448V462.304H211.352V459.448H210.852ZM210.917 462.137C209.556 463.645 208.072 464.741 206.467 465.434L206.666 465.894C208.346 465.168 209.886 464.025 211.288 462.471L210.917 462.137ZM206.472 465.433C204.864 466.09 203.03 466.422 200.966 466.422V466.922C203.084 466.922 204.984 466.582 206.661 465.895L206.472 465.433ZM200.966 466.422C198.699 466.422 196.559 465.819 194.543 464.61L194.286 465.038C196.377 466.293 198.605 466.922 200.966 466.922V466.422ZM194.545 464.611C192.564 463.4 190.968 461.787 189.757 459.767L189.328 460.025C190.581 462.112 192.233 463.784 194.284 465.037L194.545 464.611ZM189.759 459.77C188.585 457.754 188 455.613 188 453.344H187.5C187.5 455.704 188.11 457.931 189.326 460.022L189.759 459.77ZM188 453.344C188 450.884 188.587 448.69 189.756 446.753L189.328 446.495C188.108 448.516 187.5 450.801 187.5 453.344H188ZM189.758 446.751C190.929 444.774 192.52 443.238 194.534 442.139L194.295 441.701C192.202 442.842 190.545 444.442 189.327 446.497L189.758 446.751ZM194.532 442.14C196.584 441.041 198.858 440.49 201.358 440.49V439.99C198.782 439.99 196.426 440.559 194.296 441.7L194.532 442.14ZM201.358 440.49C205.165 440.49 208.403 441.987 211.084 444.998L211.457 444.666C208.687 441.555 205.317 439.99 201.358 439.99V440.49ZM211.095 444.654L193.511 462.014L193.862 462.37L211.446 445.01L211.095 444.654ZM193.528 462.385C194.774 463.405 195.989 464.166 197.174 464.663L197.367 464.201C196.237 463.728 195.063 462.995 193.845 461.999L193.528 462.385ZM197.18 464.665C198.371 465.126 199.709 465.354 201.19 465.354V464.854C199.76 464.854 198.485 464.634 197.361 464.199L197.18 464.665ZM189.292 453.176C189.292 456.336 190.342 459.048 192.44 461.298L192.805 460.958C190.796 458.803 189.792 456.213 189.792 453.176H189.292ZM192.799 461.305L209.207 445.009L208.854 444.655L192.446 460.951L192.799 461.305ZM209.195 444.644C207.948 443.548 206.729 442.764 205.537 442.303L205.356 442.769C206.479 443.204 207.649 443.951 208.865 445.02L209.195 444.644ZM205.543 442.305C204.348 441.804 202.932 441.558 201.302 441.558V442.058C202.883 442.058 204.23 442.297 205.35 442.767L205.543 442.305ZM201.302 441.558C198.987 441.558 196.909 442.071 195.076 443.102L195.321 443.538C197.072 442.553 199.063 442.058 201.302 442.058V441.558ZM195.077 443.101C193.284 444.093 191.87 445.469 190.839 447.225L191.27 447.479C192.255 445.8 193.604 444.488 195.319 443.539L195.077 443.101ZM190.839 447.225C189.806 448.984 189.292 450.97 189.292 453.176H189.792C189.792 451.051 190.287 449.154 191.27 447.479L190.839 447.225ZM218.216 465.72L218.111 465.947L218.117 465.949L218.216 465.72ZM215.248 463.312H214.998V463.383L215.035 463.443L215.248 463.312ZM215.248 460.344L215.476 460.243L214.998 460.344H215.248ZM218.16 463.928L218.025 464.139L218.03 464.142L218.16 463.928ZM227.288 463.368L227.465 463.545L227.467 463.542L227.288 463.368ZM228.016 455.416L227.815 455.565L227.818 455.569L228.016 455.416ZM224.936 452.84L225.065 452.626L225.061 452.624L224.936 452.84ZM222.808 451.608L222.678 451.822L222.682 451.824L222.808 451.608ZM219.336 449.424L219.186 449.624L219.197 449.632L219.336 449.424ZM217.544 447.576L217.332 447.71L217.336 447.715L217.544 447.576ZM218.44 441.528L218.602 441.718L218.602 441.718L218.44 441.528ZM227.68 441.584H227.93V441.451L227.82 441.377L227.68 441.584ZM227.68 444.048L227.48 444.199L227.93 444.793V444.048H227.68ZM219.784 442.648L219.628 442.453L219.628 442.453L219.784 442.648ZM219.336 447.128L219.131 447.272L219.136 447.278L219.336 447.128ZM221.184 448.808L221.045 449.016L221.05 449.019L221.184 448.808ZM225.216 451.16L225.339 450.943L225.338 450.942L225.216 451.16ZM229.416 454.52L229.218 454.673L229.221 454.676L229.416 454.52ZM228.464 464.544L228.634 464.728L228.634 464.727L228.464 464.544ZM222.976 466.366C221.211 466.366 219.66 466.072 218.315 465.491L218.117 465.949C219.535 466.563 221.156 466.866 222.976 466.866V466.366ZM218.32 465.493C216.969 464.872 216.025 464.098 215.461 463.181L215.035 463.443C215.665 464.468 216.7 465.299 218.111 465.947L218.32 465.493ZM215.498 463.312V460.344H214.998V463.312H215.498ZM215.019 460.445C215.744 462.086 216.744 463.323 218.026 464.139L218.294 463.717C217.111 462.965 216.17 461.812 215.476 460.243L215.019 460.445ZM218.03 464.142C219.312 464.919 220.928 465.298 222.864 465.298V464.798C220.991 464.798 219.472 464.431 218.289 463.714L218.03 464.142ZM222.864 465.298C224.748 465.298 226.29 464.719 227.465 463.545L227.111 463.191C226.045 464.257 224.638 464.798 222.864 464.798V465.298ZM227.467 463.542C228.638 462.332 229.218 460.793 229.218 458.944H228.718C228.718 460.679 228.178 462.089 227.108 463.194L227.467 463.542ZM229.218 458.944C229.218 457.383 228.895 456.145 228.214 455.263L227.818 455.569C228.406 456.33 228.718 457.443 228.718 458.944H229.218ZM228.217 455.267C227.555 454.372 226.498 453.493 225.065 452.626L224.806 453.054C226.211 453.904 227.207 454.743 227.815 455.565L228.217 455.267ZM225.061 452.624L222.933 451.392L222.682 451.824L224.81 453.056L225.061 452.624ZM222.938 451.395C221.408 450.462 220.254 449.736 219.474 449.216L219.197 449.632C219.985 450.158 221.146 450.888 222.678 451.821L222.938 451.395ZM219.486 449.224C218.758 448.678 218.182 448.082 217.752 447.437L217.336 447.715C217.802 448.414 218.42 449.05 219.186 449.624L219.486 449.224ZM217.755 447.443C217.335 446.778 217.122 446.004 217.122 445.112H216.622C216.622 446.087 216.856 446.956 217.332 447.709L217.755 447.443ZM217.122 445.112C217.122 443.685 217.618 442.562 218.602 441.718L218.277 441.338C217.171 442.286 216.622 443.553 216.622 445.112H217.122ZM218.602 441.718C219.593 440.869 220.894 440.434 222.528 440.434V439.934C220.802 439.934 219.377 440.395 218.277 441.338L218.602 441.718ZM222.528 440.434C224.543 440.434 226.208 440.892 227.54 441.791L227.82 441.377C226.388 440.41 224.619 439.934 222.528 439.934V440.434ZM227.43 441.584V444.048H227.93V441.584H227.43ZM227.879 443.897C226.668 442.295 224.928 441.502 222.696 441.502V442.002C224.794 442.002 226.377 442.739 227.48 444.199L227.879 443.897ZM222.696 441.502C221.459 441.502 220.429 441.812 219.628 442.453L219.94 442.843C220.632 442.289 221.543 442.002 222.696 442.002V441.502ZM219.628 442.453C218.823 443.096 218.414 443.933 218.414 444.944H218.914C218.914 444.089 219.251 443.394 219.94 442.843L219.628 442.453ZM218.414 444.944C218.414 445.814 218.652 446.593 219.132 447.272L219.54 446.984C219.124 446.394 218.914 445.717 218.914 444.944H218.414ZM219.136 447.278C219.605 447.903 220.243 448.482 221.045 449.016L221.322 448.6C220.556 448.089 219.963 447.548 219.536 446.978L219.136 447.278ZM221.05 449.019C221.877 449.546 223.226 450.333 225.094 451.378L225.338 450.942C223.472 449.897 222.133 449.116 221.318 448.597L221.05 449.019ZM225.092 451.377C226.98 452.451 228.35 453.551 229.218 454.673L229.613 454.367C228.69 453.174 227.259 452.034 225.339 450.943L225.092 451.377ZM229.221 454.676C230.072 455.741 230.51 457.156 230.51 458.944H231.01C231.01 457.074 230.551 455.539 229.611 454.364L229.221 454.676ZM230.51 458.944C230.51 461.197 229.768 462.995 228.294 464.361L228.634 464.727C230.221 463.256 231.01 461.32 231.01 458.944H230.51ZM228.294 464.36C226.85 465.696 225.083 466.366 222.976 466.366V466.866C225.2 466.866 227.091 466.155 228.634 464.728L228.294 464.36ZM237.685 465.72L237.58 465.947L237.585 465.949L237.685 465.72ZM234.717 463.312H234.467V463.383L234.504 463.443L234.717 463.312ZM234.717 460.344L234.945 460.243L234.467 460.344H234.717ZM237.629 463.928L237.494 464.139L237.499 464.142L237.629 463.928ZM246.757 463.368L246.933 463.545L246.936 463.542L246.757 463.368ZM247.485 455.416L247.283 455.565L247.287 455.569L247.485 455.416ZM244.405 452.84L244.534 452.626L244.53 452.624L244.405 452.84ZM242.277 451.608L242.146 451.822L242.151 451.824L242.277 451.608ZM238.805 449.424L238.654 449.624L238.666 449.632L238.805 449.424ZM237.013 447.576L236.801 447.71L236.804 447.715L237.013 447.576ZM237.909 441.528L238.071 441.718L238.071 441.718L237.909 441.528ZM247.149 441.584H247.399V441.451L247.288 441.377L247.149 441.584ZM247.149 444.048L246.949 444.199L247.399 444.793V444.048H247.149ZM239.253 442.648L239.096 442.453L239.096 442.453L239.253 442.648ZM238.805 447.128L238.6 447.272L238.605 447.278L238.805 447.128ZM240.653 448.808L240.514 449.016L240.518 449.019L240.653 448.808ZM244.685 451.16L244.808 450.943L244.807 450.942L244.685 451.16ZM248.885 454.52L248.687 454.673L248.689 454.676L248.885 454.52ZM247.933 464.544L248.102 464.728L248.102 464.727L247.933 464.544ZM242.445 466.366C240.68 466.366 239.128 466.072 237.784 465.491L237.585 465.949C239.003 466.563 240.625 466.866 242.445 466.866V466.366ZM237.789 465.493C236.438 464.872 235.494 464.098 234.929 463.181L234.504 463.443C235.134 464.468 236.169 465.299 237.58 465.947L237.789 465.493ZM234.967 463.312V460.344H234.467V463.312H234.967ZM234.488 460.445C235.213 462.086 236.213 463.323 237.494 464.139L237.763 463.717C236.58 462.965 235.639 461.812 234.945 460.243L234.488 460.445ZM237.499 464.142C238.781 464.919 240.397 465.298 242.333 465.298V464.798C240.46 464.798 238.94 464.431 237.758 463.714L237.499 464.142ZM242.333 465.298C244.217 465.298 245.759 464.719 246.933 463.545L246.58 463.191C245.514 464.257 244.107 464.798 242.333 464.798V465.298ZM246.936 463.542C248.107 462.332 248.687 460.793 248.687 458.944H248.187C248.187 460.679 247.646 462.089 246.577 463.194L246.936 463.542ZM248.687 458.944C248.687 457.383 248.364 456.145 247.682 455.263L247.287 455.569C247.875 456.33 248.187 457.443 248.187 458.944H248.687ZM247.686 455.267C247.024 454.372 245.967 453.493 244.534 452.626L244.275 453.054C245.68 453.904 246.676 454.743 247.283 455.565L247.686 455.267ZM244.53 452.624L242.402 451.392L242.151 451.824L244.279 453.056L244.53 452.624ZM242.407 451.395C240.877 450.462 239.723 449.736 238.943 449.216L238.666 449.632C239.454 450.158 240.615 450.888 242.146 451.821L242.407 451.395ZM238.955 449.224C238.227 448.678 237.651 448.082 237.221 447.437L236.804 447.715C237.27 448.414 237.889 449.05 238.655 449.624L238.955 449.224ZM237.224 447.443C236.804 446.778 236.591 446.004 236.591 445.112H236.091C236.091 446.087 236.325 446.956 236.801 447.709L237.224 447.443ZM236.591 445.112C236.591 443.685 237.086 442.562 238.071 441.718L237.746 441.338C236.64 442.286 236.091 443.553 236.091 445.112H236.591ZM238.071 441.718C239.062 440.869 240.362 440.434 241.997 440.434V439.934C240.271 439.934 238.846 440.395 237.746 441.338L238.071 441.718ZM241.997 440.434C244.012 440.434 245.677 440.892 247.009 441.791L247.288 441.377C245.857 440.41 244.088 439.934 241.997 439.934V440.434ZM246.899 441.584V444.048H247.399V441.584H246.899ZM247.348 443.897C246.137 442.295 244.397 441.502 242.165 441.502V442.002C244.263 442.002 245.846 442.739 246.949 444.199L247.348 443.897ZM242.165 441.502C240.928 441.502 239.897 441.812 239.096 442.453L239.409 442.843C240.101 442.289 241.012 442.002 242.165 442.002V441.502ZM239.096 442.453C238.292 443.096 237.883 443.933 237.883 444.944H238.383C238.383 444.089 238.72 443.394 239.409 442.843L239.096 442.453ZM237.883 444.944C237.883 445.814 238.121 446.593 238.6 447.272L239.009 446.984C238.592 446.394 238.383 445.717 238.383 444.944H237.883ZM238.605 447.278C239.073 447.903 239.712 448.482 240.514 449.016L240.791 448.6C240.025 448.089 239.432 447.548 239.005 446.978L238.605 447.278ZM240.518 449.019C241.346 449.546 242.695 450.333 244.562 451.378L244.807 450.942C242.94 449.897 241.602 449.116 240.787 448.597L240.518 449.019ZM244.561 451.377C246.449 452.451 247.818 453.551 248.687 454.673L249.082 454.367C248.159 453.174 246.728 452.034 244.808 450.943L244.561 451.377ZM248.689 454.676C249.541 455.741 249.979 457.156 249.979 458.944H250.479C250.479 457.074 250.02 455.539 249.08 454.364L248.689 454.676ZM249.979 458.944C249.979 461.197 249.236 462.995 247.763 464.361L248.102 464.727C249.69 463.256 250.479 461.32 250.479 458.944H249.979ZM247.763 464.36C246.319 465.696 244.551 466.366 242.445 466.366V466.866C244.668 466.866 246.56 466.155 248.102 464.728L247.763 464.36ZM260.961 464.992L260.837 465.209L260.838 465.21L260.961 464.992ZM256.145 460.232L256.36 460.105L256.36 460.105L256.145 460.232ZM256.145 446.904L256.359 447.033L256.36 447.031L256.145 446.904ZM261.017 442.088L260.893 441.871L260.892 441.872L261.017 442.088ZM273.281 441.304L273.384 441.076L273.384 441.076L273.281 441.304ZM277.649 444.44H277.899V444.336L277.826 444.263L277.649 444.44ZM277.649 447.464L277.442 447.604L277.899 448.283V447.464H277.649ZM273.505 443.32L273.369 443.53L273.375 443.533L273.505 443.32ZM262.081 443.488L262.207 443.704L262.209 443.703L262.081 443.488ZM257.769 447.744L257.983 447.873L257.983 447.873L257.769 447.744ZM257.713 459.56L257.497 459.686L257.498 459.688L257.713 459.56ZM261.913 463.704L261.789 463.921L261.794 463.924L261.913 463.704ZM277.649 459.504H277.899V458.664L277.44 459.367L277.649 459.504ZM277.649 462.528L277.831 462.7L277.899 462.628V462.528H277.649ZM273.169 465.72L273.266 465.951L273.268 465.95L273.169 465.72ZM267.681 466.478C265.296 466.478 263.099 465.91 261.084 464.774L260.838 465.21C262.93 466.389 265.213 466.978 267.681 466.978V466.478ZM261.086 464.775C259.107 463.64 257.533 462.084 256.36 460.105L255.93 460.359C257.147 462.412 258.783 464.03 260.837 465.209L261.086 464.775ZM256.36 460.105C255.19 458.13 254.603 455.898 254.603 453.4H254.103C254.103 455.98 254.711 458.302 255.93 460.359L256.36 460.105ZM254.603 453.4C254.603 451.093 255.189 448.972 256.359 447.033L255.931 446.775C254.713 448.793 254.103 451.003 254.103 453.4H254.603ZM256.36 447.031C257.533 445.053 259.126 443.478 261.143 442.304L260.892 441.872C258.802 443.088 257.147 444.723 255.93 446.777L256.36 447.031ZM261.141 442.305C263.193 441.133 265.446 440.546 267.905 440.546V440.046C265.362 440.046 263.023 440.654 260.893 441.871L261.141 442.305ZM267.905 440.546C269.97 440.546 271.725 440.878 273.179 441.532L273.384 441.076C271.851 440.386 270.022 440.046 267.905 440.046V440.546ZM273.179 441.532C274.639 442.189 276.071 443.215 277.472 444.617L277.826 444.263C276.391 442.828 274.91 441.763 273.384 441.076L273.179 441.532ZM277.399 444.44V447.464H277.899V444.44H277.399ZM277.857 447.324C276.609 445.472 275.203 444.062 273.635 443.107L273.375 443.533C274.869 444.444 276.225 445.797 277.442 447.604L277.857 447.324ZM273.641 443.11C272.098 442.107 270.181 441.614 267.905 441.614V442.114C270.109 442.114 271.926 442.591 273.369 443.53L273.641 443.11ZM267.905 441.614C265.805 441.614 263.82 442.168 261.954 443.273L262.209 443.703C264.001 442.642 265.898 442.114 267.905 442.114V441.614ZM261.955 443.272C260.127 444.339 258.659 445.787 257.555 447.615L257.983 447.873C259.044 446.117 260.452 444.728 262.207 443.704L261.955 443.272ZM257.555 447.615C256.45 449.445 255.895 451.412 255.895 453.512H256.395C256.395 451.505 256.924 449.627 257.983 447.873L257.555 447.615ZM255.895 453.512C255.895 455.793 256.428 457.853 257.497 459.686L257.929 459.434C256.908 457.683 256.395 455.711 256.395 453.512H255.895ZM257.498 459.688C258.566 461.479 259.996 462.891 261.789 463.921L262.038 463.487C260.321 462.501 258.952 461.15 257.928 459.432L257.498 459.688ZM261.794 463.924C263.623 464.914 265.587 465.41 267.681 465.41V464.91C265.669 464.91 263.787 464.435 262.032 463.484L261.794 463.924ZM267.681 465.41C271.954 465.41 275.353 463.476 277.859 459.641L277.44 459.367C275.018 463.074 271.771 464.91 267.681 464.91V465.41ZM277.399 459.504V462.528H277.899V459.504H277.399ZM277.468 462.356C276.145 463.752 274.679 464.796 273.07 465.49L273.268 465.95C274.945 465.226 276.466 464.141 277.831 462.7L277.468 462.356ZM273.073 465.489C271.503 466.147 269.707 466.478 267.681 466.478V466.978C269.762 466.978 271.625 466.637 273.266 465.951L273.073 465.489ZM288.249 465.048L288.118 465.261L288.12 465.262L288.249 465.048ZM283.433 460.064L283.214 460.185L283.215 460.187L283.433 460.064ZM283.433 446.624L283.217 446.498L283.215 446.501L283.433 446.624ZM288.249 441.752L288.376 441.967L288.378 441.966L288.249 441.752ZM301.801 441.752L301.671 441.965L301.675 441.968L301.801 441.752ZM306.673 460.176L306.892 460.296L306.893 460.294L306.673 460.176ZM301.969 465.104L302.098 465.318L302.099 465.317L301.969 465.104ZM300.961 463.704L300.83 463.491L300.83 463.491L300.961 463.704ZM305.049 459.392L304.83 459.271L304.829 459.273L305.049 459.392ZM305.049 447.464L305.268 447.343L305.268 447.343L305.049 447.464ZM300.905 443.096L300.774 443.309L300.774 443.309L300.905 443.096ZM289.201 443.152L289.332 443.365L289.333 443.364L289.201 443.152ZM285.001 447.52L284.784 447.396L284.782 447.399L285.001 447.52ZM285.001 459.392L284.782 459.513L284.785 459.518L285.001 459.392ZM289.201 463.704L289.07 463.917L289.072 463.918L289.201 463.704ZM295.137 466.646C292.641 466.646 290.39 466.041 288.378 464.834L288.12 465.262C290.215 466.519 292.556 467.146 295.137 467.146V466.646ZM288.38 464.835C286.362 463.588 284.787 461.957 283.651 459.941L283.215 460.187C284.394 462.278 286.029 463.97 288.118 465.261L288.38 464.835ZM283.652 459.943C282.515 457.89 281.947 455.673 281.947 453.288H281.447C281.447 455.756 282.036 458.057 283.214 460.185L283.652 459.943ZM281.947 453.288C281.947 450.941 282.515 448.762 283.651 446.747L283.215 446.501C282.036 448.593 281.447 450.856 281.447 453.288H281.947ZM283.649 446.75C284.823 444.733 286.398 443.14 288.376 441.967L288.122 441.537C286.068 442.754 284.433 444.409 283.217 446.498L283.649 446.75ZM288.378 441.966C290.39 440.759 292.623 440.154 295.081 440.154V439.654C292.536 439.654 290.214 440.281 288.12 441.538L288.378 441.966ZM295.081 440.154C297.501 440.154 299.696 440.758 301.671 441.965L301.931 441.539C299.874 440.282 297.589 439.654 295.081 439.654V440.154ZM301.675 441.968C303.69 443.141 305.264 444.732 306.399 446.747L306.835 446.501C305.655 444.409 304.018 442.753 301.927 441.536L301.675 441.968ZM306.399 446.747C307.535 448.762 308.103 450.941 308.103 453.288H308.603C308.603 450.856 308.014 448.593 306.835 446.501L306.399 446.747ZM308.103 453.288C308.103 455.75 307.552 458.006 306.453 460.058L306.893 460.294C308.034 458.165 308.603 455.828 308.603 453.288H308.103ZM306.454 460.056C305.355 462.071 303.818 463.681 301.839 464.891L302.099 465.317C304.152 464.063 305.751 462.388 306.892 460.296L306.454 460.056ZM301.84 464.89C299.904 466.058 297.673 466.646 295.137 466.646V467.146C297.753 467.146 300.076 466.539 302.098 465.318L301.84 464.89ZM295.137 465.578C297.31 465.578 299.297 465.025 301.092 463.917L300.83 463.491C299.116 464.549 297.22 465.078 295.137 465.078V465.578ZM301.092 463.917C302.884 462.811 304.277 461.342 305.269 459.511L304.829 459.273C303.88 461.026 302.548 462.431 300.83 463.491L301.092 463.917ZM305.268 459.513C306.297 457.645 306.811 455.606 306.811 453.4H306.311C306.311 455.525 305.817 457.48 304.83 459.271L305.268 459.513ZM306.811 453.4C306.811 451.231 306.297 449.21 305.268 447.343L304.83 447.585C305.817 449.376 306.311 451.313 306.311 453.4H306.811ZM305.268 447.343C304.239 445.477 302.828 443.989 301.036 442.883L300.774 443.309C302.491 444.368 303.843 445.793 304.83 447.585L305.268 447.343ZM301.036 442.883C299.241 441.775 297.254 441.222 295.081 441.222V441.722C297.164 441.722 299.06 442.251 300.774 443.309L301.036 442.883ZM295.081 441.222C292.906 441.222 290.901 441.795 289.069 442.94L289.333 443.364C291.085 442.269 293 441.722 295.081 441.722V441.222ZM289.07 442.939C287.279 444.044 285.85 445.531 284.784 447.396L285.218 447.644C286.243 445.85 287.614 444.425 289.332 443.365L289.07 442.939ZM284.782 447.399C283.753 449.266 283.239 451.287 283.239 453.456H283.739C283.739 451.369 284.233 449.432 285.22 447.641L284.782 447.399ZM283.239 453.456C283.239 455.625 283.753 457.646 284.782 459.513L285.22 459.271C284.233 457.48 283.739 455.543 283.739 453.456H283.239ZM284.785 459.518C285.851 461.345 287.28 462.812 289.07 463.917L289.332 463.491C287.613 462.43 286.242 461.023 285.217 459.266L284.785 459.518ZM289.072 463.918C290.904 465.025 292.928 465.578 295.137 465.578V465.078C293.016 465.078 291.082 464.548 289.33 463.49L289.072 463.918ZM319.094 464.824L318.967 465.039L318.968 465.04L319.094 464.824ZM314.278 460.008L314.493 459.881L314.493 459.881L314.278 460.008ZM314.278 446.792L314.063 446.665L314.063 446.665L314.278 446.792ZM319.094 441.976L318.968 441.76L318.967 441.761L319.094 441.976ZM332.534 442.088L332.406 442.303L332.409 442.304L332.534 442.088ZM337.238 446.96L337.014 447.072L337.488 446.96H337.238ZM337.238 424V423.75H336.988V424H337.238ZM339.03 424H339.28V423.75H339.03V424ZM339.03 466V466.25H339.28V466H339.03ZM337.238 466H336.988V466.25H337.238V466ZM337.238 459.896H337.488V458.931L337.02 459.775L337.238 459.896ZM332.366 464.768L332.241 464.552L332.239 464.553L332.366 464.768ZM331.47 463.48L331.598 463.695L331.599 463.694L331.47 463.48ZM335.726 459.224L335.512 459.095L335.511 459.096L335.726 459.224ZM335.726 447.688L335.51 447.814L335.512 447.817L335.726 447.688ZM331.47 443.376L331.339 443.589L331.341 443.59L331.47 443.376ZM320.046 443.376L320.174 443.591L320.177 443.589L320.046 443.376ZM315.79 459.224L315.572 459.347L315.575 459.352L315.79 459.224ZM319.99 463.48L319.859 463.693L319.864 463.696L319.99 463.48ZM325.814 466.366C323.431 466.366 321.234 465.78 319.22 464.608L318.968 465.04C321.061 466.257 323.344 466.866 325.814 466.866V466.366ZM319.222 464.609C317.242 463.436 315.666 461.86 314.493 459.881L314.063 460.135C315.279 462.188 316.915 463.823 318.967 465.039L319.222 464.609ZM314.493 459.881C313.322 457.904 312.736 455.745 312.736 453.4H312.236C312.236 455.833 312.845 458.08 314.063 460.135L314.493 459.881ZM312.736 453.4C312.736 451.055 313.322 448.896 314.493 446.919L314.063 446.665C312.845 448.72 312.236 450.967 312.236 453.4H312.736ZM314.493 446.919C315.666 444.94 317.242 443.364 319.222 442.191L318.967 441.761C316.915 442.977 315.279 444.612 314.063 446.665L314.493 446.919ZM319.22 442.192C321.234 441.02 323.431 440.434 325.814 440.434V439.934C323.344 439.934 321.061 440.543 318.968 441.76L319.22 442.192ZM325.814 440.434C328.119 440.434 330.315 441.055 332.406 442.303L332.662 441.873C330.498 440.582 328.214 439.934 325.814 439.934V440.434ZM332.409 442.304C334.499 443.514 336.03 445.103 337.014 447.072L337.462 446.848C336.43 444.785 334.826 443.126 332.659 441.872L332.409 442.304ZM337.488 446.96V424H336.988V446.96H337.488ZM337.238 424.25H339.03V423.75H337.238V424.25ZM338.78 424V466H339.28V424H338.78ZM339.03 465.75H337.238V466.25H339.03V465.75ZM337.488 466V459.896H336.988V466H337.488ZM337.02 459.775C335.923 461.748 334.332 463.341 332.241 464.552L332.491 464.984C334.656 463.731 336.313 462.076 337.457 460.017L337.02 459.775ZM332.239 464.553C330.184 465.763 328.044 466.366 325.814 466.366V466.866C328.139 466.866 330.366 466.237 332.493 464.983L332.239 464.553ZM325.758 465.298C327.856 465.298 329.804 464.763 331.598 463.695L331.342 463.265C329.626 464.287 327.767 464.798 325.758 464.798V465.298ZM331.599 463.694C333.426 462.591 334.874 461.143 335.941 459.352L335.511 459.096C334.488 460.815 333.099 462.204 331.341 463.266L331.599 463.694ZM335.94 459.353C337.046 457.523 337.6 455.556 337.6 453.456H337.1C337.1 455.463 336.572 457.341 335.512 459.095L335.94 459.353ZM337.6 453.456C337.6 451.356 337.046 449.389 335.94 447.559L335.512 447.817C336.572 449.571 337.1 451.449 337.1 453.456H337.6ZM335.942 447.562C334.875 445.734 333.427 444.266 331.599 443.162L331.341 443.59C333.097 444.651 334.486 446.058 335.51 447.814L335.942 447.562ZM331.601 443.163C329.807 442.056 327.858 441.502 325.758 441.502V442.002C327.765 442.002 329.623 442.53 331.339 443.589L331.601 443.163ZM325.758 441.502C323.658 441.502 321.709 442.056 319.915 443.163L320.177 443.589C321.893 442.53 323.751 442.002 325.758 442.002V441.502ZM319.918 443.161C318.126 444.229 316.696 445.678 315.63 447.506L316.062 447.758C317.086 446.002 318.456 444.614 320.174 443.591L319.918 443.161ZM315.63 447.506C314.563 449.336 314.028 451.302 314.028 453.4H314.528C314.528 451.391 315.039 449.512 316.062 447.758L315.63 447.506ZM314.028 453.4C314.028 455.533 314.543 457.516 315.572 459.347L316.008 459.101C315.021 457.348 314.528 455.448 314.528 453.4H314.028ZM315.575 459.352C316.641 461.142 318.07 462.589 319.859 463.693L320.121 463.267C318.401 462.206 317.029 460.816 316.005 459.096L315.575 459.352ZM319.864 463.696C321.694 464.763 323.66 465.298 325.758 465.298V464.798C323.749 464.798 321.87 464.287 320.116 463.264L319.864 463.696ZM363.906 463.592L363.782 463.375L363.782 463.375L363.906 463.592ZM368.274 459.448H368.524V458.615L368.066 459.31L368.274 459.448ZM368.274 462.304L368.46 462.471L368.524 462.4V462.304H368.274ZM363.738 465.664L363.833 465.895L363.837 465.894L363.738 465.664ZM351.586 464.824L351.456 465.037L351.458 465.038L351.586 464.824ZM346.714 459.896L346.498 460.022L346.5 460.025L346.714 459.896ZM346.714 446.624L346.928 446.753L346.929 446.751L346.714 446.624ZM351.586 441.92L351.468 441.7L351.467 441.701L351.586 441.92ZM368.442 444.832L368.618 445.01L368.787 444.843L368.629 444.666L368.442 444.832ZM350.858 462.192L350.683 462.014L350.485 462.209L350.7 462.385L350.858 462.192ZM354.442 464.432L354.346 464.663L354.352 464.665L354.442 464.432ZM349.794 461.128L349.611 461.298L349.787 461.487L349.97 461.305L349.794 461.128ZM366.202 444.832L366.378 445.009L366.568 444.821L366.367 444.644L366.202 444.832ZM362.618 442.536L362.522 442.767L362.528 442.769L362.618 442.536ZM352.37 443.32L352.491 443.539L352.493 443.538L352.37 443.32ZM358.362 465.354C360.349 465.354 362.24 464.838 364.031 463.809L363.782 463.375C362.063 464.362 360.258 464.854 358.362 464.854V465.354ZM364.031 463.809C365.821 462.781 367.305 461.372 368.483 459.586L368.066 459.31C366.929 461.034 365.501 462.387 363.782 463.375L364.031 463.809ZM368.024 459.448V462.304H368.524V459.448H368.024ZM368.089 462.137C366.728 463.645 365.244 464.741 363.639 465.434L363.837 465.894C365.518 465.168 367.058 464.025 368.46 462.471L368.089 462.137ZM363.644 465.433C362.036 466.09 360.202 466.422 358.138 466.422V466.922C360.256 466.922 362.155 466.582 363.833 465.895L363.644 465.433ZM358.138 466.422C355.871 466.422 353.731 465.819 351.715 464.61L351.458 465.038C353.548 466.293 355.777 466.922 358.138 466.922V466.422ZM351.717 464.611C349.736 463.4 348.14 461.787 346.929 459.767L346.5 460.025C347.752 462.112 349.405 463.784 351.456 465.037L351.717 464.611ZM346.93 459.77C345.757 457.754 345.172 455.613 345.172 453.344H344.672C344.672 455.704 345.282 457.931 346.498 460.022L346.93 459.77ZM345.172 453.344C345.172 450.884 345.759 448.69 346.928 446.753L346.5 446.495C345.28 448.516 344.672 450.801 344.672 453.344H345.172ZM346.929 446.751C348.101 444.774 349.692 443.238 351.706 442.139L351.467 441.701C349.374 442.842 347.717 444.442 346.499 446.497L346.929 446.751ZM351.704 442.14C353.756 441.041 356.03 440.49 358.53 440.49V439.99C355.953 439.99 353.598 440.559 351.468 441.7L351.704 442.14ZM358.53 440.49C362.337 440.49 365.575 441.987 368.256 444.998L368.629 444.666C365.859 441.555 362.489 439.99 358.53 439.99V440.49ZM368.267 444.654L350.683 462.014L351.034 462.37L368.618 445.01L368.267 444.654ZM350.7 462.385C351.946 463.405 353.161 464.166 354.346 464.663L354.539 464.201C353.409 463.728 352.235 462.995 351.017 461.999L350.7 462.385ZM354.352 464.665C355.543 465.126 356.881 465.354 358.362 465.354V464.854C356.932 464.854 355.657 464.634 354.533 464.199L354.352 464.665ZM346.464 453.176C346.464 456.336 347.514 459.048 349.611 461.298L349.977 460.958C347.968 458.803 346.964 456.213 346.964 453.176H346.464ZM349.97 461.305L366.378 445.009L366.026 444.655L349.618 460.951L349.97 461.305ZM366.367 444.644C365.12 443.548 363.901 442.764 362.709 442.303L362.528 442.769C363.651 443.204 364.821 443.951 366.037 445.02L366.367 444.644ZM362.715 442.305C361.52 441.804 360.104 441.558 358.474 441.558V442.058C360.055 442.058 361.402 442.297 362.522 442.767L362.715 442.305ZM358.474 441.558C356.159 441.558 354.081 442.071 352.248 443.102L352.493 443.538C354.244 442.553 356.235 442.058 358.474 442.058V441.558ZM352.249 443.101C350.456 444.093 349.042 445.469 348.011 447.225L348.442 447.479C349.427 445.8 350.776 444.488 352.491 443.539L352.249 443.101ZM348.011 447.225C346.978 448.984 346.464 450.97 346.464 453.176H346.964C346.964 451.051 347.458 449.154 348.442 447.479L348.011 447.225Z" fill="white"/>
<defs>
<filter id="filter0_d_12_12" x="251.077" y="46.999" width="124.729" height="195.002" filterUnits="userSpaceOnUse" color-interpolation-filters="sRGB">
<feFlood flood-opacity="0" result="BackgroundImageFix"/>
<feColorMatrix in="SourceAlpha" type="matrix" values="0 0 0 0 0 0 0 0 0 0 0 0 0 0 0 0 0 0 127 0" result="hardAlpha"/>
<feOffset dy="4"/>
<feGaussianBlur stdDeviation="2"/>
<feComposite in2="hardAlpha" operator="out"/>
<feColorMatrix type="matrix" values="0 0 0 0 0 0 0 0 0 0 0 0 0 0 0 0 0 0 0.25 0"/>
<feBlend mode="normal" in2="BackgroundImageFix" result="effect1_dropShadow_12_12"/>
<feBlend mode="normal" in="SourceGraphic" in2="effect1_dropShadow_12_12" result="shape"/>
</filter>
<filter id="filter1_d_12_12" x="138" y="227.079" width="126.579" height="196.422" filterUnits="userSpaceOnUse" color-interpolation-filters="sRGB">
<feFlood flood-opacity="0" result="BackgroundImageFix"/>
<feColorMatrix in="SourceAlpha" type="matrix" values="0 0 0 0 0 0 0 0 0 0 0 0 0 0 0 0 0 0 127 0" result="hardAlpha"/>
<feOffset dy="4"/>
<feGaussianBlur stdDeviation="2"/>
<feComposite in2="hardAlpha" operator="out"/>
<feColorMatrix type="matrix" values="0 0 0 0 0 0 0 0 0 0 0 0 0 0 0 0 0 0 0.25 0"/>
<feBlend mode="normal" in2="BackgroundImageFix" result="effect1_dropShadow_12_12"/>
<feBlend mode="normal" in="SourceGraphic" in2="effect1_dropShadow_12_12" result="shape"/>
</filter>
</defs>
</svg>
